<svg width="288" height="96" viewBox="0 0 288 96" fill="none" xmlns="http://www.w3.org/2000/svg">
<rect x="169" y="59.9487" width="119" height="36.0513" rx="18.0256" fill="#4DB2DD"/>
<path d="M194.861 72.084C194.789 72.22 194.685 72.288 194.549 72.288C194.445 72.288 194.309 72.216 194.141 72.072C193.981 71.92 193.761 71.756 193.481 71.58C193.201 71.396 192.849 71.228 192.425 71.076C192.009 70.924 191.493 70.848 190.877 70.848C190.261 70.848 189.717 70.936 189.245 71.112C188.781 71.288 188.389 71.528 188.069 71.832C187.757 72.136 187.517 72.488 187.349 72.888C187.189 73.288 187.109 73.708 187.109 74.148C187.109 74.724 187.229 75.2 187.469 75.576C187.717 75.952 188.041 76.272 188.441 76.536C188.841 76.8 189.293 77.024 189.797 77.208C190.309 77.384 190.833 77.56 191.369 77.736C191.905 77.912 192.425 78.108 192.929 78.324C193.441 78.532 193.897 78.796 194.297 79.116C194.697 79.436 195.017 79.832 195.257 80.304C195.505 80.768 195.629 81.348 195.629 82.044C195.629 82.756 195.505 83.428 195.257 84.06C195.017 84.684 194.665 85.228 194.201 85.692C193.737 86.156 193.169 86.524 192.497 86.796C191.825 87.06 191.057 87.192 190.193 87.192C189.073 87.192 188.109 86.996 187.301 86.604C186.493 86.204 185.785 85.66 185.177 84.972L185.513 84.444C185.609 84.324 185.721 84.264 185.849 84.264C185.921 84.264 186.013 84.312 186.125 84.408C186.237 84.504 186.373 84.624 186.533 84.768C186.693 84.904 186.885 85.056 187.109 85.224C187.333 85.384 187.593 85.536 187.889 85.68C188.185 85.816 188.525 85.932 188.909 86.028C189.293 86.124 189.729 86.172 190.217 86.172C190.889 86.172 191.489 86.072 192.017 85.872C192.545 85.664 192.989 85.384 193.349 85.032C193.717 84.68 193.997 84.264 194.189 83.784C194.381 83.296 194.477 82.776 194.477 82.224C194.477 81.624 194.353 81.132 194.105 80.748C193.865 80.356 193.545 80.032 193.145 79.776C192.745 79.512 192.289 79.292 191.777 79.116C191.273 78.94 190.753 78.768 190.217 78.6C189.681 78.432 189.157 78.244 188.645 78.036C188.141 77.828 187.689 77.564 187.289 77.244C186.889 76.916 186.565 76.512 186.317 76.032C186.077 75.544 185.957 74.936 185.957 74.208C185.957 73.64 186.065 73.092 186.281 72.564C186.497 72.036 186.813 71.572 187.229 71.172C187.645 70.764 188.157 70.44 188.765 70.2C189.381 69.952 190.081 69.828 190.865 69.828C191.745 69.828 192.533 69.968 193.229 70.248C193.933 70.528 194.573 70.956 195.149 71.532L194.861 72.084ZM210.28 70.02V71.064H204.316V87H203.092V71.064H197.092V70.02H210.28ZM219.507 86.124C220.323 86.124 221.051 85.984 221.691 85.704C222.339 85.416 222.887 85.02 223.335 84.516C223.783 84.012 224.123 83.42 224.355 82.74C224.595 82.052 224.715 81.312 224.715 80.52V70.02H225.939V80.52C225.939 81.456 225.791 82.332 225.495 83.148C225.199 83.956 224.771 84.664 224.211 85.272C223.659 85.872 222.983 86.344 222.183 86.688C221.391 87.032 220.499 87.204 219.507 87.204C218.515 87.204 217.619 87.032 216.819 86.688C216.027 86.344 215.351 85.872 214.791 85.272C214.239 84.664 213.815 83.956 213.519 83.148C213.223 82.332 213.075 81.456 213.075 80.52V70.02H214.311V80.508C214.311 81.3 214.427 82.04 214.659 82.728C214.899 83.408 215.239 84 215.679 84.504C216.127 85.008 216.671 85.404 217.311 85.692C217.959 85.98 218.691 86.124 219.507 86.124ZM245.125 78.504C245.125 79.816 244.929 80.996 244.537 82.044C244.145 83.092 243.593 83.984 242.881 84.72C242.169 85.456 241.317 86.02 240.325 86.412C239.333 86.804 238.233 87 237.025 87H230.833V70.02H237.025C238.233 70.02 239.333 70.216 240.325 70.608C241.317 71 242.169 71.564 242.881 72.3C243.593 73.036 244.145 73.928 244.537 74.976C244.929 76.024 245.125 77.2 245.125 78.504ZM243.853 78.504C243.853 77.32 243.689 76.264 243.361 75.336C243.033 74.408 242.569 73.624 241.969 72.984C241.377 72.344 240.661 71.856 239.821 71.52C238.981 71.184 238.049 71.016 237.025 71.016H232.069V86.004H237.025C238.049 86.004 238.981 85.836 239.821 85.5C240.661 85.164 241.377 84.676 241.969 84.036C242.569 83.396 243.033 82.612 243.361 81.684C243.689 80.756 243.853 79.696 243.853 78.504ZM250.747 87H249.511V70.02H250.747V87ZM271.383 78.504C271.383 79.816 271.187 81.008 270.795 82.08C270.403 83.144 269.851 84.056 269.139 84.816C268.427 85.568 267.575 86.152 266.583 86.568C265.591 86.976 264.491 87.18 263.283 87.18C262.091 87.18 260.999 86.976 260.007 86.568C259.015 86.152 258.163 85.568 257.451 84.816C256.739 84.056 256.183 83.144 255.783 82.08C255.391 81.008 255.195 79.816 255.195 78.504C255.195 77.2 255.391 76.016 255.783 74.952C256.183 73.88 256.739 72.968 257.451 72.216C258.163 71.456 259.015 70.868 260.007 70.452C260.999 70.036 262.091 69.828 263.283 69.828C264.491 69.828 265.591 70.036 266.583 70.452C267.575 70.86 268.427 71.444 269.139 72.204C269.851 72.964 270.403 73.88 270.795 74.952C271.187 76.016 271.383 77.2 271.383 78.504ZM270.111 78.504C270.111 77.32 269.947 76.256 269.619 75.312C269.291 74.368 268.827 73.568 268.227 72.912C267.635 72.256 266.919 71.756 266.079 71.412C265.239 71.06 264.307 70.884 263.283 70.884C262.275 70.884 261.351 71.06 260.511 71.412C259.679 71.756 258.959 72.256 258.351 72.912C257.751 73.568 257.283 74.368 256.947 75.312C256.619 76.256 256.455 77.32 256.455 78.504C256.455 79.696 256.619 80.764 256.947 81.708C257.283 82.644 257.751 83.44 258.351 84.096C258.959 84.752 259.679 85.252 260.511 85.596C261.351 85.94 262.275 86.112 263.283 86.112C264.307 86.112 265.239 85.94 266.079 85.596C266.919 85.252 267.635 84.752 268.227 84.096C268.827 83.44 269.291 82.644 269.619 81.708C269.947 80.764 270.111 79.696 270.111 78.504Z" fill="white"/>
<path d="M49.0399 52.412H43.6242C42.9984 52.412 42.493 52.2547 42.1078 51.9403C41.7227 51.6258 41.4339 51.2266 41.2413 50.7428L36.4033 38.1873H13.188L8.35 50.7428C8.18151 51.1782 7.89267 51.5653 7.48348 51.904C7.0743 52.2426 6.56883 52.412 5.96709 52.412H0.551392L21.2394 0.411987H28.352L49.0399 52.412ZM15.1377 33.107H34.4537L26.3301 11.9514C25.8006 10.6451 25.2831 9.01213 24.7776 7.0526C24.5128 8.04446 24.2481 8.96374 23.9833 9.81045C23.7426 10.633 23.5019 11.3587 23.2612 11.9877L15.1377 33.107Z" fill="#282828"/>
<path d="M44.6228 0.411987H50.219C50.8448 0.411987 51.3503 0.569233 51.7354 0.883725C52.1205 1.19822 52.4093 1.59738 52.6019 2.08121L67.2243 38.7679C67.5612 39.5904 67.8621 40.4855 68.1269 41.4532C68.4157 42.4208 68.6925 43.4248 68.9573 44.465C69.1739 43.4248 69.4026 42.4208 69.6433 41.4532C69.908 40.4855 70.2089 39.5904 70.5459 38.7679L85.0961 2.08121C85.2645 1.66996 85.5534 1.29498 85.9626 0.956299C86.3718 0.593425 86.8772 0.411987 87.479 0.411987H93.1113L72.0262 52.412H65.7079L44.6228 0.411987Z" fill="#282828"/>
<path d="M93.7025 0.411987H99.2987C99.9245 0.411987 100.43 0.569233 100.815 0.883725C101.2 1.19822 101.489 1.59738 101.682 2.08121L116.304 38.7679C116.641 39.5904 116.942 40.4855 117.207 41.4532C117.495 42.4208 117.772 43.4248 118.037 44.465C118.254 43.4248 118.482 42.4208 118.723 41.4532C118.988 40.4855 119.289 39.5904 119.626 38.7679L134.176 2.08121C134.344 1.66996 134.633 1.29498 135.042 0.956299C135.452 0.593425 135.957 0.411987 136.559 0.411987H142.191L121.106 52.412H114.788L93.7025 0.411987Z" fill="#282828"/>
<path d="M180.656 0.411987V6.14541H155.816V23.4183H175.926V28.934H155.816V46.6786H180.656V52.412H148.776V0.411987H180.656Z" fill="#282828"/>
<path d="M194.344 0.411987C194.969 0.411987 195.427 0.496658 195.716 0.665999C196.029 0.81115 196.378 1.12564 196.763 1.60947L226.73 40.8C226.657 40.171 226.609 39.5662 226.585 38.9856C226.561 38.3808 226.549 37.8002 226.549 37.2438V0.411987H232.687V52.412H229.149C228.595 52.412 228.126 52.3152 227.74 52.1217C227.379 51.9282 227.018 51.6016 226.657 51.1419L196.727 11.9877C196.775 12.5925 196.811 13.1852 196.835 13.7658C196.859 14.3464 196.871 14.8786 196.871 15.3624V52.412H190.733V0.411987H194.344Z" fill="#282828"/>
<path d="M280.551 0.411987V6.32685H263.835V52.412H256.831V6.32685H240.042V0.411987H280.551Z" fill="#282828"/>
</svg>
