<svg width="196" height="46" viewBox="0 0 196 46" fill="none" xmlns="http://www.w3.org/2000/svg">
<path d="M27.9138 28.232L22.5138 14.24C22.3538 13.824 22.1858 13.344 22.0098 12.8C21.8338 12.24 21.6658 11.648 21.5058 11.024C21.1698 12.32 20.8258 13.4 20.4738 14.264L15.0738 28.232H27.9138ZM37.6098 41H34.0098C33.5938 41 33.2578 40.896 33.0018 40.688C32.7458 40.48 32.5538 40.216 32.4258 39.896L29.2098 31.592H13.7778L10.5618 39.896C10.4658 40.184 10.2818 40.44 10.0098 40.664C9.73781 40.888 9.40181 41 9.00181 41H5.40181L19.1538 6.608H23.8578L37.6098 41Z" fill="#4DB2DD"/>
<ellipse cx="37.5493" cy="5.4" rx="5.4507" ry="5.4" fill="#4DB2DD"/>
<path d="M59.3584 32.132C60.0304 32.132 60.6224 32.052 61.1344 31.892C61.6544 31.724 62.0864 31.492 62.4304 31.196C62.7824 30.892 63.0464 30.532 63.2224 30.116C63.3984 29.7 63.4864 29.24 63.4864 28.736C63.4864 27.712 63.1504 26.94 62.4784 26.42C61.8064 25.9 60.7984 25.64 59.4544 25.64H56.9104V32.132H59.3584ZM67.3024 41H65.2384C64.8144 41 64.5024 40.836 64.3024 40.508L59.8384 34.364C59.7024 34.172 59.5544 34.036 59.3944 33.956C59.2424 33.868 59.0024 33.824 58.6744 33.824H56.9104V41H54.5944V23.804H59.4544C60.5424 23.804 61.4824 23.916 62.2744 24.14C63.0664 24.356 63.7184 24.672 64.2304 25.088C64.7504 25.504 65.1344 26.008 65.3824 26.6C65.6304 27.184 65.7544 27.84 65.7544 28.568C65.7544 29.176 65.6584 29.744 65.4664 30.272C65.2744 30.8 64.9944 31.276 64.6264 31.7C64.2664 32.116 63.8224 32.472 63.2944 32.768C62.7744 33.064 62.1824 33.288 61.5184 33.44C61.8144 33.608 62.0704 33.852 62.2864 34.172L67.3024 41ZM76.4999 33.596C76.4999 33.1 76.4279 32.648 76.2839 32.24C76.1479 31.824 75.9439 31.468 75.6719 31.172C75.4079 30.868 75.0839 30.636 74.6999 30.476C74.3159 30.308 73.8799 30.224 73.3919 30.224C72.3679 30.224 71.5559 30.524 70.9559 31.124C70.3639 31.716 69.9959 32.54 69.8519 33.596H76.4999ZM78.2279 39.296C77.9639 39.616 77.6479 39.896 77.2799 40.136C76.9119 40.368 76.5159 40.56 76.0919 40.712C75.6759 40.864 75.2439 40.976 74.7959 41.048C74.3479 41.128 73.9039 41.168 73.4639 41.168C72.6239 41.168 71.8479 41.028 71.1359 40.748C70.4319 40.46 69.8199 40.044 69.2999 39.5C68.7879 38.948 68.3879 38.268 68.0999 37.46C67.8119 36.652 67.6679 35.724 67.6679 34.676C67.6679 33.828 67.7959 33.036 68.0519 32.3C68.3159 31.564 68.6919 30.928 69.1799 30.392C69.6679 29.848 70.2639 29.424 70.9679 29.12C71.6719 28.808 72.4639 28.652 73.3439 28.652C74.0719 28.652 74.7439 28.776 75.3599 29.024C75.9839 29.264 76.5199 29.616 76.9679 30.08C77.4239 30.536 77.7799 31.104 78.0359 31.784C78.2919 32.456 78.4199 33.224 78.4199 34.088C78.4199 34.424 78.3839 34.648 78.3119 34.76C78.2399 34.872 78.1039 34.928 77.9039 34.928H69.7799C69.8039 35.696 69.9079 36.364 70.0919 36.932C70.2839 37.5 70.5479 37.976 70.8839 38.36C71.2199 38.736 71.6199 39.02 72.0839 39.212C72.5479 39.396 73.0679 39.488 73.6439 39.488C74.1799 39.488 74.6399 39.428 75.0239 39.308C75.4159 39.18 75.7519 39.044 76.0319 38.9C76.3119 38.756 76.5439 38.624 76.7279 38.504C76.9199 38.376 77.0839 38.312 77.2199 38.312C77.3959 38.312 77.5319 38.38 77.6279 38.516L78.2279 39.296ZM87.6316 35.528C86.6476 35.56 85.8076 35.64 85.1116 35.768C84.4236 35.888 83.8596 36.048 83.4196 36.248C82.9876 36.448 82.6716 36.684 82.4716 36.956C82.2796 37.228 82.1836 37.532 82.1836 37.868C82.1836 38.188 82.2356 38.464 82.3396 38.696C82.4436 38.928 82.5836 39.12 82.7596 39.272C82.9436 39.416 83.1556 39.524 83.3956 39.596C83.6436 39.66 83.9076 39.692 84.1876 39.692C84.5636 39.692 84.9076 39.656 85.2196 39.584C85.5316 39.504 85.8236 39.392 86.0956 39.248C86.3756 39.104 86.6396 38.932 86.8876 38.732C87.1436 38.532 87.3916 38.304 87.6316 38.048V35.528ZM80.7316 30.56C81.4036 29.912 82.1276 29.428 82.9036 29.108C83.6796 28.788 84.5396 28.628 85.4836 28.628C86.1636 28.628 86.7676 28.74 87.2956 28.964C87.8236 29.188 88.2676 29.5 88.6276 29.9C88.9876 30.3 89.2596 30.784 89.4436 31.352C89.6276 31.92 89.7196 32.544 89.7196 33.224V41H88.7716C88.5636 41 88.4036 40.968 88.2916 40.904C88.1796 40.832 88.0916 40.696 88.0276 40.496L87.7876 39.344C87.4676 39.64 87.1556 39.904 86.8516 40.136C86.5476 40.36 86.2276 40.552 85.8916 40.712C85.5556 40.864 85.1956 40.98 84.8116 41.06C84.4356 41.148 84.0156 41.192 83.5516 41.192C83.0796 41.192 82.6356 41.128 82.2196 41C81.8036 40.864 81.4396 40.664 81.1276 40.4C80.8236 40.136 80.5796 39.804 80.3956 39.404C80.2196 38.996 80.1316 38.516 80.1316 37.964C80.1316 37.484 80.2636 37.024 80.5276 36.584C80.7916 36.136 81.2196 35.74 81.8116 35.396C82.4036 35.052 83.1756 34.772 84.1276 34.556C85.0796 34.332 86.2476 34.204 87.6316 34.172V33.224C87.6316 32.28 87.4276 31.568 87.0196 31.088C86.6116 30.6 86.0156 30.356 85.2316 30.356C84.7036 30.356 84.2596 30.424 83.8996 30.56C83.5476 30.688 83.2396 30.836 82.9756 31.004C82.7196 31.164 82.4956 31.312 82.3036 31.448C82.1196 31.576 81.9356 31.64 81.7516 31.64C81.6076 31.64 81.4836 31.604 81.3796 31.532C81.2756 31.452 81.1876 31.356 81.1156 31.244L80.7316 30.56ZM101.433 31.004C101.369 31.092 101.305 31.16 101.241 31.208C101.177 31.256 101.089 31.28 100.977 31.28C100.857 31.28 100.725 31.232 100.581 31.136C100.437 31.032 100.257 30.92 100.041 30.8C99.8333 30.68 99.5733 30.572 99.2613 30.476C98.9573 30.372 98.5813 30.32 98.1333 30.32C97.5333 30.32 97.0053 30.428 96.5493 30.644C96.0933 30.852 95.7093 31.156 95.3973 31.556C95.0933 31.956 94.8613 32.44 94.7013 33.008C94.5493 33.576 94.4733 34.212 94.4733 34.916C94.4733 35.652 94.5573 36.308 94.7253 36.884C94.8933 37.452 95.1293 37.932 95.4333 38.324C95.7453 38.708 96.1173 39.004 96.5493 39.212C96.9893 39.412 97.4813 39.512 98.0253 39.512C98.5453 39.512 98.9733 39.452 99.3093 39.332C99.6453 39.204 99.9213 39.064 100.137 38.912C100.361 38.76 100.545 38.624 100.689 38.504C100.841 38.376 100.989 38.312 101.133 38.312C101.309 38.312 101.445 38.38 101.541 38.516L102.141 39.296C101.877 39.624 101.577 39.904 101.241 40.136C100.905 40.368 100.541 40.564 100.149 40.724C99.7653 40.876 99.3613 40.988 98.9373 41.06C98.5133 41.132 98.0813 41.168 97.6413 41.168C96.8813 41.168 96.1733 41.028 95.5173 40.748C94.8693 40.468 94.3053 40.064 93.8253 39.536C93.3453 39 92.9693 38.344 92.6973 37.568C92.4253 36.792 92.2893 35.908 92.2893 34.916C92.2893 34.012 92.4133 33.176 92.6613 32.408C92.9173 31.64 93.2853 30.98 93.7653 30.428C94.2533 29.868 94.8493 29.432 95.5533 29.12C96.2653 28.808 97.0813 28.652 98.0013 28.652C98.8573 28.652 99.6093 28.792 100.257 29.072C100.913 29.344 101.493 29.732 101.997 30.236L101.433 31.004ZM108.166 41.192C107.206 41.192 106.466 40.924 105.946 40.388C105.434 39.852 105.178 39.08 105.178 38.072V30.632H103.714C103.586 30.632 103.478 30.596 103.39 30.524C103.302 30.444 103.258 30.324 103.258 30.164V29.312L105.25 29.06L105.742 25.304C105.766 25.184 105.818 25.088 105.898 25.016C105.986 24.936 106.098 24.896 106.234 24.896H107.314V29.084H110.83V30.632H107.314V37.928C107.314 38.44 107.438 38.82 107.686 39.068C107.934 39.316 108.254 39.44 108.646 39.44C108.87 39.44 109.062 39.412 109.222 39.356C109.39 39.292 109.534 39.224 109.654 39.152C109.774 39.08 109.874 39.016 109.954 38.96C110.042 38.896 110.118 38.864 110.182 38.864C110.294 38.864 110.394 38.932 110.482 39.068L111.106 40.088C110.738 40.432 110.294 40.704 109.774 40.904C109.254 41.096 108.718 41.192 108.166 41.192ZM112.844 32.9H118.772V34.712H112.844V32.9ZM124.15 23.324V41H122.014V23.324H124.15ZM134.202 35.528C133.218 35.56 132.378 35.64 131.682 35.768C130.994 35.888 130.43 36.048 129.99 36.248C129.558 36.448 129.242 36.684 129.042 36.956C128.85 37.228 128.754 37.532 128.754 37.868C128.754 38.188 128.806 38.464 128.91 38.696C129.014 38.928 129.154 39.12 129.33 39.272C129.514 39.416 129.726 39.524 129.966 39.596C130.214 39.66 130.478 39.692 130.758 39.692C131.134 39.692 131.478 39.656 131.79 39.584C132.102 39.504 132.394 39.392 132.666 39.248C132.946 39.104 133.21 38.932 133.458 38.732C133.714 38.532 133.962 38.304 134.202 38.048V35.528ZM127.302 30.56C127.974 29.912 128.698 29.428 129.474 29.108C130.25 28.788 131.11 28.628 132.054 28.628C132.734 28.628 133.338 28.74 133.866 28.964C134.394 29.188 134.838 29.5 135.198 29.9C135.558 30.3 135.83 30.784 136.014 31.352C136.198 31.92 136.29 32.544 136.29 33.224V41H135.342C135.134 41 134.974 40.968 134.862 40.904C134.75 40.832 134.662 40.696 134.598 40.496L134.358 39.344C134.038 39.64 133.726 39.904 133.422 40.136C133.118 40.36 132.798 40.552 132.462 40.712C132.126 40.864 131.766 40.98 131.382 41.06C131.006 41.148 130.586 41.192 130.122 41.192C129.65 41.192 129.206 41.128 128.79 41C128.374 40.864 128.01 40.664 127.698 40.4C127.394 40.136 127.15 39.804 126.966 39.404C126.79 38.996 126.702 38.516 126.702 37.964C126.702 37.484 126.834 37.024 127.098 36.584C127.362 36.136 127.79 35.74 128.382 35.396C128.974 35.052 129.746 34.772 130.698 34.556C131.65 34.332 132.818 34.204 134.202 34.172V33.224C134.202 32.28 133.998 31.568 133.59 31.088C133.182 30.6 132.586 30.356 131.802 30.356C131.274 30.356 130.83 30.424 130.47 30.56C130.118 30.688 129.81 30.836 129.546 31.004C129.29 31.164 129.066 31.312 128.874 31.448C128.69 31.576 128.506 31.64 128.322 31.64C128.178 31.64 128.054 31.604 127.95 31.532C127.846 31.452 127.758 31.356 127.686 31.244L127.302 30.56ZM149.75 28.844L142.97 44.588C142.898 44.748 142.806 44.876 142.694 44.972C142.59 45.068 142.426 45.116 142.202 45.116H140.618L142.838 40.292L137.822 28.844H139.67C139.854 28.844 139.998 28.892 140.102 28.988C140.214 29.076 140.29 29.176 140.33 29.288L143.582 36.944C143.71 37.28 143.818 37.632 143.906 38C144.018 37.624 144.138 37.268 144.266 36.932L147.422 29.288C147.47 29.16 147.55 29.056 147.662 28.976C147.782 28.888 147.914 28.844 148.058 28.844H149.75ZM156.433 28.652C157.321 28.652 158.121 28.8 158.833 29.096C159.545 29.392 160.153 29.812 160.657 30.356C161.161 30.9 161.545 31.56 161.809 32.336C162.081 33.104 162.217 33.964 162.217 34.916C162.217 35.876 162.081 36.74 161.809 37.508C161.545 38.276 161.161 38.932 160.657 39.476C160.153 40.02 159.545 40.44 158.833 40.736C158.121 41.024 157.321 41.168 156.433 41.168C155.537 41.168 154.729 41.024 154.009 40.736C153.297 40.44 152.689 40.02 152.185 39.476C151.681 38.932 151.293 38.276 151.021 37.508C150.757 36.74 150.625 35.876 150.625 34.916C150.625 33.964 150.757 33.104 151.021 32.336C151.293 31.56 151.681 30.9 152.185 30.356C152.689 29.812 153.297 29.392 154.009 29.096C154.729 28.8 155.537 28.652 156.433 28.652ZM156.433 39.5C157.633 39.5 158.529 39.1 159.121 38.3C159.713 37.492 160.009 36.368 160.009 34.928C160.009 33.48 159.713 32.352 159.121 31.544C158.529 30.736 157.633 30.332 156.433 30.332C155.825 30.332 155.293 30.436 154.837 30.644C154.389 30.852 154.013 31.152 153.709 31.544C153.413 31.936 153.189 32.42 153.037 32.996C152.893 33.564 152.821 34.208 152.821 34.928C152.821 36.368 153.117 37.492 153.709 38.3C154.309 39.1 155.217 39.5 156.433 39.5ZM174.922 28.844V41H173.65C173.346 41 173.154 40.852 173.074 40.556L172.906 39.248C172.378 39.832 171.786 40.304 171.13 40.664C170.474 41.016 169.722 41.192 168.874 41.192C168.21 41.192 167.622 41.084 167.11 40.868C166.606 40.644 166.182 40.332 165.838 39.932C165.494 39.532 165.234 39.048 165.058 38.48C164.89 37.912 164.806 37.284 164.806 36.596V28.844H166.942V36.596C166.942 37.516 167.15 38.228 167.566 38.732C167.99 39.236 168.634 39.488 169.498 39.488C170.13 39.488 170.718 39.34 171.262 39.044C171.814 38.74 172.322 38.324 172.786 37.796V28.844H174.922ZM182.041 41.192C181.081 41.192 180.341 40.924 179.821 40.388C179.309 39.852 179.053 39.08 179.053 38.072V30.632H177.589C177.461 30.632 177.353 30.596 177.265 30.524C177.177 30.444 177.133 30.324 177.133 30.164V29.312L179.125 29.06L179.617 25.304C179.641 25.184 179.693 25.088 179.773 25.016C179.861 24.936 179.973 24.896 180.109 24.896H181.189V29.084H184.705V30.632H181.189V37.928C181.189 38.44 181.313 38.82 181.561 39.068C181.809 39.316 182.129 39.44 182.521 39.44C182.745 39.44 182.937 39.412 183.097 39.356C183.265 39.292 183.409 39.224 183.529 39.152C183.649 39.08 183.749 39.016 183.829 38.96C183.917 38.896 183.993 38.864 184.057 38.864C184.169 38.864 184.269 38.932 184.357 39.068L184.981 40.088C184.613 40.432 184.169 40.704 183.649 40.904C183.129 41.096 182.593 41.192 182.041 41.192ZM193.991 30.848C193.895 31.024 193.747 31.112 193.547 31.112C193.427 31.112 193.291 31.068 193.139 30.98C192.987 30.892 192.799 30.796 192.575 30.692C192.359 30.58 192.099 30.48 191.795 30.392C191.491 30.296 191.131 30.248 190.715 30.248C190.355 30.248 190.031 30.296 189.743 30.392C189.455 30.48 189.207 30.604 188.999 30.764C188.799 30.924 188.643 31.112 188.531 31.328C188.427 31.536 188.375 31.764 188.375 32.012C188.375 32.324 188.463 32.584 188.639 32.792C188.823 33 189.063 33.18 189.359 33.332C189.655 33.484 189.991 33.62 190.367 33.74C190.743 33.852 191.127 33.976 191.519 34.112C191.919 34.24 192.307 34.384 192.683 34.544C193.059 34.704 193.395 34.904 193.691 35.144C193.987 35.384 194.223 35.68 194.399 36.032C194.583 36.376 194.675 36.792 194.675 37.28C194.675 37.84 194.575 38.36 194.375 38.84C194.175 39.312 193.879 39.724 193.487 40.076C193.095 40.42 192.615 40.692 192.047 40.892C191.479 41.092 190.823 41.192 190.079 41.192C189.231 41.192 188.463 41.056 187.775 40.784C187.087 40.504 186.503 40.148 186.023 39.716L186.527 38.9C186.591 38.796 186.667 38.716 186.755 38.66C186.843 38.604 186.955 38.576 187.091 38.576C187.235 38.576 187.387 38.632 187.547 38.744C187.707 38.856 187.899 38.98 188.123 39.116C188.355 39.252 188.635 39.376 188.963 39.488C189.291 39.6 189.699 39.656 190.187 39.656C190.603 39.656 190.967 39.604 191.279 39.5C191.591 39.388 191.851 39.24 192.059 39.056C192.267 38.872 192.419 38.66 192.515 38.42C192.619 38.18 192.671 37.924 192.671 37.652C192.671 37.316 192.579 37.04 192.395 36.824C192.219 36.6 191.983 36.412 191.687 36.26C191.391 36.1 191.051 35.964 190.667 35.852C190.291 35.732 189.903 35.608 189.503 35.48C189.111 35.352 188.723 35.208 188.339 35.048C187.963 34.88 187.627 34.672 187.331 34.424C187.035 34.176 186.795 33.872 186.611 33.512C186.435 33.144 186.347 32.7 186.347 32.18C186.347 31.716 186.443 31.272 186.635 30.848C186.827 30.416 187.107 30.04 187.475 29.72C187.843 29.392 188.295 29.132 188.831 28.94C189.367 28.748 189.979 28.652 190.667 28.652C191.467 28.652 192.183 28.78 192.815 29.036C193.455 29.284 194.007 29.628 194.471 30.068L193.991 30.848Z" fill="black"/>
</svg>
